<mxfile host="app.diagrams.net" agent="Mozilla/5.0 (Windows NT 10.0; Win64; x64) AppleWebKit/537.36 (KHTML, like Gecko) Chrome/129.0.0.0 Safari/537.36" version="24.7.16">
  <diagram name="Página-1" id="U_GWmg-gW6azt53RVTm6">
    <mxGraphModel dx="1050" dy="1699" grid="1" gridSize="10" guides="1" tooltips="1" connect="1" arrows="1" fold="1" page="1" pageScale="1" pageWidth="827" pageHeight="1169" math="0" shadow="0">
      <root>
        <mxCell id="0" />
        <mxCell id="1" parent="0" />
        <mxCell id="sgJ8qLkjsA2Iaj-S_tmb-1" value="" style="rounded=0;whiteSpace=wrap;html=1;" parent="1" vertex="1">
          <mxGeometry x="140" y="-1120" width="580" height="410" as="geometry" />
        </mxCell>
        <mxCell id="sgJ8qLkjsA2Iaj-S_tmb-2" style="rounded=0;orthogonalLoop=1;jettySize=auto;html=1;entryX=0;entryY=0.5;entryDx=0;entryDy=0;endArrow=none;endFill=0;" parent="1" target="sgJ8qLkjsA2Iaj-S_tmb-6" edge="1">
          <mxGeometry relative="1" as="geometry">
            <mxPoint x="80" y="-940" as="sourcePoint" />
          </mxGeometry>
        </mxCell>
        <mxCell id="sgJ8qLkjsA2Iaj-S_tmb-3" value="Usuario" style="shape=umlActor;verticalLabelPosition=bottom;verticalAlign=top;html=1;" parent="1" vertex="1">
          <mxGeometry x="30" y="-960" width="30" height="60" as="geometry" />
        </mxCell>
        <mxCell id="sgJ8qLkjsA2Iaj-S_tmb-5" value="&lt;b&gt;Gestión de cuentas&lt;/b&gt;" style="text;html=1;align=center;verticalAlign=middle;whiteSpace=wrap;rounded=0;" parent="1" vertex="1">
          <mxGeometry x="346" y="-1110" width="135" height="20" as="geometry" />
        </mxCell>
        <mxCell id="sgJ8qLkjsA2Iaj-S_tmb-6" value="Listar cuentas" style="ellipse;whiteSpace=wrap;html=1;labelPosition=center;verticalLabelPosition=bottom;align=center;verticalAlign=top;" parent="1" vertex="1">
          <mxGeometry x="320" y="-1030" width="96" height="50" as="geometry" />
        </mxCell>
        <mxCell id="sgJ8qLkjsA2Iaj-S_tmb-7" value="Realizar un depósito" style="ellipse;whiteSpace=wrap;html=1;labelPosition=center;verticalLabelPosition=bottom;align=center;verticalAlign=top;" parent="1" vertex="1">
          <mxGeometry x="366" y="-945" width="96" height="50" as="geometry" />
        </mxCell>
        <mxCell id="sgJ8qLkjsA2Iaj-S_tmb-8" value="Obtener detalles de cuenta" style="ellipse;whiteSpace=wrap;html=1;labelPosition=center;verticalLabelPosition=bottom;align=center;verticalAlign=top;" parent="1" vertex="1">
          <mxGeometry x="560" y="-945" width="96" height="50" as="geometry" />
        </mxCell>
        <mxCell id="sgJ8qLkjsA2Iaj-S_tmb-9" value="Realizar un retiro" style="ellipse;whiteSpace=wrap;html=1;labelPosition=center;verticalLabelPosition=bottom;align=center;verticalAlign=top;" parent="1" vertex="1">
          <mxGeometry x="320" y="-850" width="96" height="50" as="geometry" />
        </mxCell>
        <mxCell id="sgJ8qLkjsA2Iaj-S_tmb-11" style="rounded=0;orthogonalLoop=1;jettySize=auto;html=1;endArrow=none;endFill=0;entryX=0;entryY=0.5;entryDx=0;entryDy=0;" parent="1" target="sgJ8qLkjsA2Iaj-S_tmb-13" edge="1">
          <mxGeometry relative="1" as="geometry">
            <mxPoint x="70" y="-950" as="sourcePoint" />
            <mxPoint x="766" y="-951" as="targetPoint" />
          </mxGeometry>
        </mxCell>
        <mxCell id="sgJ8qLkjsA2Iaj-S_tmb-12" style="rounded=0;orthogonalLoop=1;jettySize=auto;html=1;endArrow=none;endFill=0;entryX=0;entryY=0.5;entryDx=0;entryDy=0;" parent="1" target="sgJ8qLkjsA2Iaj-S_tmb-7" edge="1">
          <mxGeometry relative="1" as="geometry">
            <mxPoint x="80" y="-920" as="sourcePoint" />
            <mxPoint x="760" y="-915" as="targetPoint" />
          </mxGeometry>
        </mxCell>
        <mxCell id="sgJ8qLkjsA2Iaj-S_tmb-13" value="Crear cuenta" style="ellipse;whiteSpace=wrap;html=1;labelPosition=center;verticalLabelPosition=bottom;align=center;verticalAlign=top;" parent="1" vertex="1">
          <mxGeometry x="220" y="-1100" width="96" height="50" as="geometry" />
        </mxCell>
        <mxCell id="sgJ8qLkjsA2Iaj-S_tmb-14" value="Eliminar una cuenta" style="ellipse;whiteSpace=wrap;html=1;labelPosition=center;verticalLabelPosition=bottom;align=center;verticalAlign=top;" parent="1" vertex="1">
          <mxGeometry x="220" y="-800" width="96" height="50" as="geometry" />
        </mxCell>
        <mxCell id="sgJ8qLkjsA2Iaj-S_tmb-20" style="rounded=0;orthogonalLoop=1;jettySize=auto;html=1;endArrow=none;endFill=0;entryX=0;entryY=0.5;entryDx=0;entryDy=0;" parent="1" target="sgJ8qLkjsA2Iaj-S_tmb-9" edge="1">
          <mxGeometry relative="1" as="geometry">
            <mxPoint x="80" y="-900" as="sourcePoint" />
            <mxPoint x="530" y="-875" as="targetPoint" />
          </mxGeometry>
        </mxCell>
        <mxCell id="sgJ8qLkjsA2Iaj-S_tmb-21" style="rounded=0;orthogonalLoop=1;jettySize=auto;html=1;endArrow=none;endFill=0;entryX=0;entryY=0.5;entryDx=0;entryDy=0;" parent="1" target="sgJ8qLkjsA2Iaj-S_tmb-14" edge="1">
          <mxGeometry relative="1" as="geometry">
            <mxPoint x="80" y="-885" as="sourcePoint" />
            <mxPoint x="520" y="-860" as="targetPoint" />
          </mxGeometry>
        </mxCell>
        <mxCell id="pFYkN3EmXhFJCG_pQVLK-1" value="Use" style="endArrow=open;endSize=12;dashed=1;html=1;rounded=0;entryX=1;entryY=0.5;entryDx=0;entryDy=0;exitX=0;exitY=0;exitDx=0;exitDy=0;" edge="1" parent="1" source="sgJ8qLkjsA2Iaj-S_tmb-8" target="sgJ8qLkjsA2Iaj-S_tmb-13">
          <mxGeometry width="160" relative="1" as="geometry">
            <mxPoint x="330" y="-890" as="sourcePoint" />
            <mxPoint x="490" y="-890" as="targetPoint" />
          </mxGeometry>
        </mxCell>
        <mxCell id="pFYkN3EmXhFJCG_pQVLK-2" value="Use" style="endArrow=open;endSize=12;dashed=1;html=1;rounded=0;entryX=1;entryY=0.5;entryDx=0;entryDy=0;exitX=0;exitY=0.5;exitDx=0;exitDy=0;" edge="1" parent="1" source="sgJ8qLkjsA2Iaj-S_tmb-8" target="sgJ8qLkjsA2Iaj-S_tmb-7">
          <mxGeometry width="160" relative="1" as="geometry">
            <mxPoint x="326" y="-1065" as="sourcePoint" />
            <mxPoint x="592" y="-929" as="targetPoint" />
          </mxGeometry>
        </mxCell>
        <mxCell id="pFYkN3EmXhFJCG_pQVLK-3" value="Use" style="endArrow=open;endSize=12;dashed=1;html=1;rounded=0;exitX=0;exitY=1;exitDx=0;exitDy=0;entryX=0.954;entryY=0.332;entryDx=0;entryDy=0;entryPerimeter=0;" edge="1" parent="1" source="sgJ8qLkjsA2Iaj-S_tmb-8" target="sgJ8qLkjsA2Iaj-S_tmb-9">
          <mxGeometry width="160" relative="1" as="geometry">
            <mxPoint x="472" y="-910" as="sourcePoint" />
            <mxPoint x="570" y="-910" as="targetPoint" />
          </mxGeometry>
        </mxCell>
      </root>
    </mxGraphModel>
  </diagram>
</mxfile>
